<?xml version="1.0" encoding="UTF-8"?>
<svg width="350px" height="350px" viewBox="0 0 350 350" version="1.1" xmlns="http://www.w3.org/2000/svg" xmlns:xlink="http://www.w3.org/1999/xlink">
    <title>Group</title>
    <defs>
        <linearGradient x1="5.29774028%" y1="4.92278747%" x2="80.4175761%" y2="84.8251238%" id="linearGradient-1">
            <stop stop-color="#5924FF" offset="0%"></stop>
            <stop stop-color="#260C51" offset="100%"></stop>
        </linearGradient>
    </defs>
    <g id="Page-1" stroke="none" stroke-width="1" fill="none" fill-rule="evenodd">
        <g id="Group">
            <rect id="Rectangle" stroke="#979797" fill="url(#linearGradient-1)" x="0.5" y="0.5" width="349" height="349" rx="40"></rect>
            <g id="Badge" transform="translate(56.000000, 0.000000)">
                <path d="M2.84217094e-14,0 L239,0 L239,50.4242424 C239,54.0247572 237.561127,57.4778043 234.999915,60.0237527 C232.438704,62.5697011 228.964957,64 225.342857,64 L13.6571429,64 C10.0350434,64 6.56129564,62.5697011 4.00008453,60.0237527 C1.43887342,57.4778043 2.84217094e-14,54.0247572 2.84217094e-14,50.4242424 L2.84217094e-14,0 Z" id="BG-2" fill="#FEE45A" fill-rule="nonzero"></path>
                <path d="M57.2719564,22.3896646 L52.479428,22.3896646 L52.479428,34.6710839 C52.4548681,35.6894954 52.4968836,36.7084086 52.6052136,37.7214967 L52.5428083,37.7214967 C52.1969792,37.123075 51.8196224,36.5192074 51.410738,35.9098937 L42.4672852,22.3896646 L37,22.3896646 L37,44.5978998 L41.7925284,44.5978998 L41.7925284,32.3943266 C41.7925284,30.7835856 41.7505999,29.5861016 41.6667428,28.8018745 L41.7291481,28.8018745 C42.0724905,29.4357932 42.450064,30.0511154 42.8602433,30.6451926 L52.1459499,44.5978998 L57.2719564,44.5978998 L57.2719564,22.3896646 Z M75.9369775,40.5393323 L67.4995923,40.5393323 L67.4995923,35.4601163 L74.8682875,35.4601163 L74.8682875,31.403471 L67.4995923,31.403471 L67.4995923,26.4636091 L75.4182338,26.4636091 L75.4182338,22.3896646 L62.4213648,22.3896646 L62.4213648,44.5978998 L75.9330772,44.5978998 L75.9330772,40.5402934 L75.9369775,40.5393323 Z M104.543935,22.3896646 L101.433424,37.2092503 C101.257521,38.0252776 101.147319,38.8537294 101.103846,39.6868698 L101.040466,39.6868698 C100.97348,38.8848048 100.852959,38.0879604 100.679685,37.3015123 L96.9870494,22.3896646 L91.5509668,22.3896646 L87.4653729,37.1169883 C87.2195457,37.965623 87.0668829,38.8378213 87.0100096,39.7185848 L86.9125014,39.7185848 C86.8758339,38.8658647 86.7761109,38.0169162 86.6141262,37.1784963 L83.4431593,22.3896646 L77.8968925,22.3896646 L83.8205161,44.5969387 L89.6807594,44.5969387 L93.5147821,30.3501464 C93.7206968,29.5317164 93.8573522,28.6978566 93.9233415,27.8571499 L93.9857467,27.8571499 C94.0164241,28.6984301 94.1376897,29.5341181 94.3475022,30.3501464 L98.086942,44.5969387 L103.711215,44.5969387 L109.666042,22.3896646 L104.543935,22.3896646 Z M125.880681,39.6253618 C126.123878,39.2663704 126.40856,38.936437 126.729003,38.6421947 C127.119666,38.2783168 127.531525,37.9372013 127.962482,37.6205851 C128.428571,37.2746026 128.913187,36.9260572 129.416329,36.574949 C130.159342,36.0694301 130.876677,35.5453306 131.568335,35.0026505 C132.244428,34.475567 132.858641,33.875665 133.399539,33.214113 C133.931332,32.5581881 134.360268,31.8273339 134.672021,31.0459557 C135.004702,30.175354 135.167151,29.2505456 135.150787,28.3203821 C135.163451,27.4268917 134.995392,26.5398669 134.65642,25.711097 C134.337994,24.9478305 133.845924,24.2668644 133.218174,23.7207363 C132.546594,23.1496287 131.76343,22.7201755 130.91698,22.4588611 C129.9231,22.1518693 128.885932,22.0029591 127.844497,22.0177334 C125.495364,21.9857563 123.188879,22.6376651 121.213939,23.8918055 L121.213939,28.196405 C122.716908,26.7857382 124.697231,25.9745215 126.771907,25.9196476 C127.667229,25.8495638 128.557168,26.1087355 129.270067,26.647172 C129.847492,27.2132581 130.145854,27.9993206 130.087186,28.7999523 C130.090337,29.2682058 130.005027,29.7329465 129.835614,30.1704276 C129.649263,30.629779 129.392061,31.0580129 129.0731,31.4399914 C128.693765,31.8972543 128.273077,32.3196143 127.816219,32.7018666 C127.318928,33.1253749 126.740379,33.5693858 126.080573,34.0338994 C125.45197,34.4779103 124.78924,34.9760611 124.092381,35.5283518 C123.383408,36.0931909 122.73839,36.7318348 122.168544,37.4331779 C121.568057,38.1722847 121.07572,38.9907541 120.705921,39.8646664 C120.303828,40.8347644 120.104827,41.874959 120.120872,42.9227677 L120.120872,44.5950166 L135.109833,44.5950166 L135.109833,40.5402934 L125.554029,40.5402934 C125.57043,40.2108119 125.683947,39.8931929 125.880681,39.6263228 L125.880681,39.6253618 Z M152.614507,41.9790041 C154.044627,39.9761496 154.759687,37.0958449 154.759687,33.3380901 C154.759687,25.7911856 152.140942,22.0177334 146.903451,22.0177334 C144.412201,21.8901545 142.029308,23.0336151 140.59467,25.0450806 C139.143748,27.0633122 138.418612,29.9977567 138.419261,33.8484143 C138.419261,41.2716621 141.100738,44.9829656 146.463689,44.9823249 C148.902463,45.0968464 151.228319,43.9619046 152.614507,41.9809263 L152.614507,41.9790041 Z M149.699986,33.4928211 C149.699986,38.6550089 148.67355,41.2361027 146.620677,41.2361027 C144.5158,41.2361027 143.463036,38.7325346 143.462386,33.7253983 C143.462386,28.4075184 144.534977,25.7485785 146.680157,25.7485785 C148.692077,25.7485785 149.697711,28.3296724 149.697061,33.4918601 L149.697061,33.4918601 L149.699986,33.4928211 Z M162.897722,39.6253618 C163.140919,39.2663704 163.425601,38.936437 163.746044,38.6421947 C164.136707,38.2783168 164.548565,37.9372013 164.979523,37.6205851 C165.445612,37.2746026 165.930228,36.9260572 166.43337,36.574949 C167.176383,36.0694301 167.893718,35.5453306 168.585376,35.0026505 C169.261394,34.4758079 169.87531,33.8758768 170.415605,33.214113 C170.948047,32.5584558 171.377341,31.8275512 171.689062,31.0459557 C172.021743,30.175354 172.184192,29.2505456 172.167828,28.3203821 C172.180785,27.4267759 172.012371,26.5396325 171.672486,25.711097 C171.354741,24.9477084 170.86295,24.2666668 170.235215,23.7207363 C169.563635,23.1496287 168.780471,22.7201755 167.934021,22.4588611 C166.940141,22.1518693 165.902972,22.0029591 164.861538,22.0177334 C162.512405,21.9857563 160.20592,22.6376651 158.23098,23.8918055 L158.23098,28.196405 C159.733948,26.7857382 161.714272,25.9745215 163.788947,25.9196476 C164.68427,25.8495638 165.574209,26.1087355 166.287108,26.647172 C166.864533,27.2132581 167.162894,27.9993206 167.104226,28.7999523 C167.106903,29.2681653 167.021608,29.7328204 166.852655,30.1704276 C166.666304,30.629779 166.409102,31.0580129 166.090141,31.4399914 C165.710806,31.8972543 165.290117,32.3196143 164.83326,32.7018666 C164.335968,33.1253749 163.75742,33.5693858 163.097614,34.0338994 C162.468361,34.4779103 161.80563,34.9760611 161.109422,35.5283518 C160.400367,36.0934213 159.75505,36.732038 159.18461,37.4331779 C158.584429,38.1724936 158.092118,38.9909188 157.721987,39.8646664 C157.319894,40.8347644 157.120893,41.874959 157.136937,42.9227677 L157.136937,44.5950166 L172.136625,44.5950166 L172.136625,40.5402934 L162.580821,40.5402934 C162.594361,40.2118056 162.704459,39.8942743 162.897722,39.6263228 L162.897722,39.6253618 Z M181.862094,44.9832859 C184.135804,45.114019 186.386549,44.4748177 188.241081,43.1716829 C189.768583,41.9909302 190.627889,40.1590275 190.55105,38.247198 C190.581971,36.9525743 190.083755,35.70001 189.168384,34.7710344 C188.153902,33.7822237 186.819446,33.1757778 185.397741,33.0574598 L185.397741,32.983458 C188.383443,32.2504875 189.876293,30.4334384 189.876293,27.5323107 C189.914012,25.9793668 189.19925,24.5015176 187.951481,23.5525504 C186.39097,22.4442074 184.489999,21.9010252 182.570003,22.0148502 C180.658148,21.9729528 178.763243,22.3763173 177.039338,23.1921519 L177.039338,27.1949777 C178.320863,26.2805415 179.856982,25.7772062 181.438908,25.7533838 C183.690698,25.7533838 184.816592,26.6567827 184.816592,28.4635804 C184.816592,30.3857057 183.350394,31.3467683 180.417997,31.3467683 L178.484409,31.3467683 L178.484409,35.0949125 L180.57401,35.0949125 C181.829017,35.0295753 183.077841,35.3083504 184.181814,35.900283 C185.015498,36.3663986 185.519972,37.2480872 185.493299,38.1924174 C185.534176,39.0668743 185.137839,39.9055993 184.43241,40.4374597 C183.563039,41.0217586 182.521448,41.3050329 181.471086,41.2428302 C179.579001,41.2796178 177.726107,40.7088713 176.191991,39.6167122 L176.191991,43.8694143 C177.966242,44.6790529 179.910419,45.0611777 181.864044,44.984247 L181.864044,44.984247 L181.862094,44.9832859 Z M195.499592,22.3896646 L196.084641,37.6897816 L200.106854,37.6897816 L200.716281,22.3896646 L195.499592,22.3896646 Z M200.205338,44.2250075 C200.72912,43.752642 201.018778,43.0792434 200.999055,42.3797673 C201.016428,41.6866505 200.723237,41.0211635 200.197537,40.5604757 C199.630857,40.0685549 198.893662,39.8107526 198.139139,39.8406398 C197.384326,39.8152724 196.647223,40.0693265 196.07294,40.5527872 C195.532392,41.0075134 195.229221,41.6786043 195.24802,42.3788062 C195.240882,43.0731208 195.538846,43.7365294 196.065139,44.1980978 C197.257146,45.1919998 198.999668,45.20373 200.205338,44.2259686 L200.205338,44.2250075 Z" id="NEW_2023_Shape" fill="#362701"></path>
            </g>
            <path d="M75.024,287 L76.532,281.436 L86.36,281.436 L87.92,287 L99.152,287 L86.932,249.04 L75.96,249.04 L63.74,287 L75.024,287 Z M83.968,272.336 L78.924,272.336 L81.42,262.976 L83.968,272.336 Z M111.996,287 L111.996,249.04 L101.804,249.04 L101.804,287 L111.996,287 Z M141.74,287 L141.74,266.564 L149.644,280.292 L154.844,280.292 L162.748,266.564 L162.748,287 L172.992,287 L172.992,249.04 L162.696,249.04 L152.244,267.084 L141.792,249.04 L131.548,249.04 L131.548,287 L141.74,287 Z M190.256,287.416 C191.850667,287.416 193.315333,287.052 194.65,286.324 C195.984667,285.596 197.068,284.625333 197.9,283.412 L197.9,283.412 L198.524,287 L207.156,287 L207.156,258.4 L198.524,258.4 L197.9,261.832 C197.068,260.618667 195.984667,259.648 194.65,258.92 C193.315333,258.192 191.850667,257.828 190.256,257.828 C186.650667,257.828 183.565333,259.275333 181,262.17 C178.434667,265.064667 177.152,268.557333 177.152,272.648 C177.152,276.704 178.434667,280.179333 181,283.074 C183.565333,285.968667 186.650667,287.416 190.256,287.416 Z M192.18,278.004 C190.689333,278.004 189.424,277.484 188.384,276.444 C187.344,275.404 186.824,274.138667 186.824,272.648 C186.824,271.122667 187.344,269.831333 188.384,268.774 C189.424,267.716667 190.689333,267.188 192.18,267.188 C193.670667,267.188 194.944667,267.716667 196.002,268.774 C197.059333,269.831333 197.588,271.122667 197.588,272.648 C197.588,274.138667 197.059333,275.404 196.002,276.444 C194.944667,277.484 193.670667,278.004 192.18,278.004 Z M224.42,299.324 C229.481333,299.324 233.476667,297.868 236.406,294.956 C239.335333,292.044 240.8,287.901333 240.8,282.528 L240.8,282.528 L240.8,258.4 L232.168,258.4 L231.544,261.832 C230.712,260.618667 229.628667,259.648 228.294,258.92 C226.959333,258.192 225.494667,257.828 223.9,257.828 C220.294667,257.828 217.209333,259.275333 214.644,262.17 C212.078667,265.064667 210.796,268.557333 210.796,272.648 C210.796,276.704 212.078667,280.179333 214.644,283.074 C217.209333,285.968667 220.294667,287.416 223.9,287.416 C226.985333,287.416 229.429333,286.185333 231.232,283.724 L231.232,283.724 L231.232,284.712 C231.232,286.48 230.590667,287.91 229.308,289.002 C228.025333,290.094 226.430667,290.64 224.524,290.64 C222.062667,290.64 220.069333,289.877333 218.544,288.352 L218.544,288.352 L211.94,293.5 C213.292,295.302667 215.112,296.724 217.4,297.764 C219.688,298.804 222.028,299.324 224.42,299.324 Z M225.824,278.004 C224.333333,278.004 223.068,277.484 222.028,276.444 C220.988,275.404 220.468,274.138667 220.468,272.648 C220.468,271.122667 220.988,269.831333 222.028,268.774 C223.068,267.716667 224.333333,267.188 225.824,267.188 C227.314667,267.188 228.588667,267.716667 229.646,268.774 C230.703333,269.831333 231.232,271.122667 231.232,272.648 C231.232,274.138667 230.703333,275.404 229.646,276.444 C228.588667,277.484 227.314667,278.004 225.824,278.004 Z M250.42,256.736 C251.841333,256.736 253.054667,256.216 254.06,255.176 C255.065333,254.170667 255.568,252.957333 255.568,251.536 C255.568,250.114667 255.065333,248.892667 254.06,247.87 C253.054667,246.847333 251.841333,246.336 250.42,246.336 C248.998667,246.336 247.776667,246.847333 246.754,247.87 C245.731333,248.892667 245.22,250.114667 245.22,251.536 C245.22,252.957333 245.731333,254.179333 246.754,255.202 C247.776667,256.224667 248.998667,256.736 250.42,256.736 Z M255.204,287 L255.204,258.4 L245.636,258.4 L245.636,287 L255.204,287 Z M273.612,287.572 C276.073333,287.572 278.387333,286.974 280.554,285.778 C282.720667,284.582 284.48,282.978667 285.832,280.968 L285.832,280.968 L277.98,275.664 C276.94,277.12 275.484,277.848 273.612,277.848 C272.156,277.848 270.942667,277.354 269.972,276.366 C269.001333,275.378 268.516,274.156 268.516,272.7 C268.516,271.313333 269.001333,270.126 269.972,269.138 C270.942667,268.15 272.156,267.656 273.612,267.656 C275.310667,267.656 276.714667,268.245333 277.824,269.424 L277.824,269.424 L285.676,264.224 C284.289333,262.317333 282.538667,260.800667 280.424,259.674 C278.309333,258.547333 276.038667,257.984 273.612,257.984 C269.521333,257.984 266.037333,259.422667 263.16,262.3 C260.282667,265.177333 258.844,268.644 258.844,272.7 C258.844,276.790667 260.282667,280.292 263.16,283.204 C266.037333,286.116 269.521333,287.572 273.612,287.572 Z" id="AIMagic" fill="#12E193" fill-rule="nonzero"></path>
            <g id="Group-6" transform="translate(175.000000, 161.000000) rotate(45.000000) translate(-175.000000, -161.000000) translate(118.000000, 87.485281)">
                <rect id="Rectangle" fill="#D8D8D8" x="51" y="49.0294373" width="11" height="98" rx="5.5"></rect>
                <polygon id="Star" fill="#FEE45A" points="57 63.6259903 36.4275162 77.1734592 42.9546776 53.4214663 23.7130219 38.0422696 48.3195134 36.9101995 57 13.8578644 65.6804866 36.9101995 90.2869781 38.0422696 71.0453224 53.4214663 77.5724838 77.1734592"></polygon>
                <polygon id="Star" fill="#FEE45A" points="11 59.9314608 3.22182541 65.1629509 8.45331555 57.3847763 3.22182541 49.6066017 11 54.8380919 18.7781746 49.6066017 13.5466845 57.3847763 18.7781746 65.1629509"></polygon>
                <polygon id="Star" fill="#FEE45A" points="32.9583694 13.3784775 25.1801948 18.7781746 30.5798919 11 25.1801948 3.22182541 32.9583694 8.62152248 40.736544 3.22182541 35.336847 11 40.736544 18.7781746"></polygon>
                <polygon id="Star" fill="#FEE45A" points="81.0416306 13.3784775 73.263456 18.7781746 78.663153 11 73.263456 3.22182541 81.0416306 8.62152248 88.8198052 3.22182541 83.4201081 11 88.8198052 18.7781746"></polygon>
                <polygon id="Star" fill="#FEE45A" points="103 63.0902757 95.2218254 67.991378 100.122928 60.2132034 95.2218254 52.4350288 103 57.3361312 110.778175 52.4350288 105.877072 60.2132034 110.778175 67.991378"></polygon>
            </g>
        </g>
    </g>
</svg>